<?xml version="1.0" encoding="UTF-8"?>
<svg id="Calque_1" data-name="Calque 1" xmlns="http://www.w3.org/2000/svg" viewBox="0 0 1920 1080">
  <defs>
    <style>
      .cls-1 {
        fill: #1d1d1b;
      }
    </style>
  </defs>
  <g>
    <path class="cls-1" d="M579.03,539.17c-6.59-3.5-15.49-6.69-26.69-9.58-10.46-2.63-18.37-4.9-23.72-6.79-5.36-1.89-8.96-3.87-10.81-5.93-1.86-2.06-2.78-4.57-2.78-7.54,0-5.11,2.43-9.12,7.29-12.05,4.86-2.92,11.2-4.22,19.03-3.89,8.15.33,14.78,2.35,19.89,6.05s8.11,8.77,9.02,15.2l26.44-4.82c-.99-7.91-3.95-14.8-8.9-20.69-4.94-5.89-11.41-10.44-19.4-13.65-7.99-3.21-17.09-4.82-27.31-4.82s-19.58,1.65-27.37,4.94c-7.78,3.3-13.82,7.95-18.1,13.96-4.28,6.01-6.43,13.06-6.43,21.13,0,6.51,1.42,12.05,4.26,16.62,2.84,4.57,7.62,8.57,14.33,11.99,6.71,3.42,15.79,6.61,27.25,9.58,10.46,2.8,18.24,5.15,23.35,7.04,5.11,1.89,8.46,3.89,10.07,5.99,1.61,2.1,2.41,4.84,2.41,8.21,0,5.77-2.28,10.3-6.86,13.59-4.57,3.3-10.89,4.94-18.96,4.94-8.9,0-16.33-2-22.3-5.99-5.97-3.99-9.78-9.45-11.43-16.37l-26.44,4.08c2.31,13.02,8.57,23.1,18.78,30.27,10.21,7.17,23.43,10.75,39.66,10.75s30.13-3.75,39.72-11.24c9.59-7.49,14.39-17.83,14.39-31.01,0-6.84-1.42-12.66-4.26-17.48-2.84-4.82-7.56-8.98-14.14-12.48Z"/>
    <path class="cls-1" d="M661.43,437.3h-25.94v37.07h-25.58v20.76h25.58v60.17c0,7.25.1,13.74.31,19.46s1.75,11.35,4.63,16.86c3.21,6.18,7.99,10.71,14.33,13.59,6.34,2.88,13.55,4.45,21.62,4.7,8.07.25,16.31-.45,24.71-2.1v-21.87c-8.73,1.24-16.33,1.51-22.79.8-6.47-.7-11.18-3.6-14.14-8.71-1.57-2.72-2.41-6.05-2.53-10.01-.12-3.95-.19-8.61-.19-13.96v-58.93h39.66v-20.76h-39.66v-37.07Z"/>
    <path class="cls-1" d="M820.44,543.8c0,7.91-.88,14.62-2.65,20.14-1.77,5.52-4.2,9.97-7.29,13.34-3.09,3.38-6.69,5.83-10.81,7.35-4.12,1.53-8.48,2.29-13.1,2.29-7.08,0-12.83-1.44-17.23-4.32-4.41-2.88-7.82-6.67-10.25-11.37-2.43-4.69-4.08-9.78-4.94-15.26-.87-5.48-1.3-10.81-1.3-16v-65.6h-26.19v74.13c0,4.12.37,8.9,1.11,14.33.74,5.43,2.14,11,4.2,16.68,2.06,5.68,5.05,10.93,8.96,15.75,3.91,4.82,9,8.71,15.26,11.68,6.26,2.97,14,4.45,23.22,4.45,12.03,0,22.28-2.59,30.77-7.78,5.23-3.2,9.62-7.27,13.34-12.02v16.22h22.98v-133.43h-26.07v69.43Z"/>
    <path class="cls-1" d="M970.92,483.6c-1.46-1.3-2.91-2.6-4.51-3.74-8.61-6.13-19.21-9.2-31.81-9.2s-23.33,3.07-32.43,9.2c-9.1,6.14-16.12,14.5-21.06,25.08-4.94,10.58-7.42,22.59-7.42,36.01s2.45,25.35,7.35,36.02c4.9,10.67,11.86,19.09,20.88,25.27,9.02,6.18,19.75,9.27,32.18,9.27s23.47-3.11,32.12-9.33c2.8-2.01,5.3-4.34,7.66-6.82v12.44h22.98v-177.91h-25.95v53.71ZM970.17,565.42c-2.47,7.08-6.38,12.64-11.74,16.68-5.36,4.04-12.28,6.05-20.76,6.05s-15.06-2.1-20.45-6.3c-5.4-4.2-9.43-9.86-12.11-16.99-2.68-7.12-4.02-15.09-4.02-23.91s1.34-16.64,4.02-23.72c2.67-7.08,6.77-12.72,12.29-16.93,5.52-4.2,12.56-6.3,21.13-6.3,8.07,0,14.72,1.98,19.95,5.93,5.23,3.95,9.1,9.47,11.61,16.56,2.51,7.09,3.77,15.24,3.77,24.46s-1.23,17.38-3.71,24.46Z"/>
    <rect class="cls-1" x="1033.92" y="474.36" width="25.82" height="133.43"/>
    <rect class="cls-1" x="1033.92" y="427.41" width="25.82" height="25.08"/>
    <path class="cls-1" d="M1189.48,479.68c-9.8-6.01-21.38-9.02-34.72-9.02s-24.54,2.95-34.35,8.83c-9.8,5.89-17.42,14.13-22.85,24.71-5.44,10.59-8.16,22.84-8.16,36.76s2.66,26.05,7.97,36.63c5.31,10.59,12.87,18.89,22.67,24.9,9.8,6.01,21.38,9.02,34.72,9.02s24.79-2.99,34.59-8.96c9.8-5.97,17.4-14.25,22.79-24.83,5.39-10.58,8.09-22.84,8.09-36.76s-2.68-25.9-8.03-36.45c-5.36-10.54-12.93-18.82-22.73-24.83ZM1183.36,574.25c-6.3,8.61-15.84,12.91-28.6,12.91s-21.87-4.2-28.29-12.6c-6.43-8.4-9.64-19.6-9.64-33.61,0-9.06,1.36-17.03,4.08-23.91,2.72-6.88,6.88-12.27,12.48-16.18,5.6-3.91,12.73-5.87,21.38-5.87,12.6,0,22.09,4.18,28.48,12.54,6.38,8.36,9.58,19.5,9.58,33.42s-3.15,24.69-9.45,33.3Z"/>
    <path class="cls-1" d="M1391.41,479.86c-9.1-6.13-19.91-9.2-32.43-9.2s-23.21,3.07-31.81,9.2c-2.73,1.95-5.17,4.2-7.48,6.6v-12.09h-22.98v192.74h25.94v-68.84c1.51,1.36,3.03,2.72,4.7,3.91,8.65,6.22,19.35,9.33,32.12,9.33s23.17-3.09,32.18-9.27c9.02-6.18,15.98-14.6,20.88-25.27,4.9-10.67,7.35-22.67,7.35-36.02s-2.47-25.43-7.41-36.01c-4.94-10.58-11.97-18.94-21.07-25.08ZM1388.45,564.86c-2.68,7.13-6.71,12.79-12.11,16.99-5.4,4.2-12.22,6.3-20.45,6.3s-15.4-2.02-20.76-6.05c-5.36-4.04-9.27-9.59-11.74-16.68-2.47-7.08-3.71-15.24-3.71-24.46s1.26-17.38,3.77-24.46c2.51-7.08,6.38-12.6,11.61-16.56,5.23-3.95,11.88-5.93,19.95-5.93,8.57,0,15.61,2.1,21.13,6.3,5.51,4.2,9.61,9.84,12.29,16.93,2.67,7.09,4.02,14.99,4.02,23.72s-1.34,16.78-4.02,23.91Z"/>
    <path class="cls-1" d="M1539.73,480.11c-9.56-6.3-21.13-9.45-34.72-9.45s-24.42,2.92-34.22,8.77c-9.8,5.85-17.44,14.13-22.92,24.83-5.48,10.71-8.22,23.35-8.22,37.93,0,13.76,2.78,25.84,8.34,36.26,5.56,10.42,13.34,18.53,23.35,24.34,10.01,5.81,21.64,8.71,34.9,8.71s24.67-3.27,35.21-9.82c10.54-6.55,18.41-15.79,23.6-27.74l-25.33-8.03c-3.3,6.84-7.89,12.09-13.78,15.75-5.89,3.67-12.87,5.5-20.94,5.5-12.27,0-21.66-4.02-28.17-12.05-5.38-6.64-8.5-15.58-9.43-26.75h99.37c.99-15.98-.88-29.78-5.62-41.39-4.74-11.61-11.88-20.57-21.44-26.87ZM1476.84,505.74c6.5-8.15,16.22-12.23,29.16-12.23,11.7,0,20.41,3.71,26.13,11.12,4.31,5.58,7.04,13.45,8.19,23.6h-72.33c1.37-9.26,4.29-16.78,8.85-22.49Z"/>
    <rect class="cls-1" x="1596.93" y="427.41" width="25.82" height="25.08"/>
    <rect class="cls-1" x="1596.93" y="474.36" width="25.82" height="133.43"/>
    <path class="cls-1" d="M1775.22,504.51c-5.36-10.54-12.93-18.82-22.73-24.83-9.8-6.01-21.38-9.02-34.72-9.02s-24.54,2.95-34.35,8.83c-9.8,5.89-17.42,14.13-22.85,24.71-5.44,10.59-8.16,22.84-8.16,36.76s2.66,26.05,7.97,36.63c5.31,10.59,12.87,18.89,22.67,24.9,9.8,6.01,21.38,9.02,34.72,9.02s24.79-2.99,34.59-8.96c9.8-5.97,17.4-14.25,22.79-24.83,5.39-10.58,8.09-22.84,8.09-36.76s-2.68-25.9-8.03-36.45ZM1746.37,574.25c-6.3,8.61-15.84,12.91-28.6,12.91s-21.87-4.2-28.29-12.6c-6.43-8.4-9.64-19.6-9.64-33.61,0-9.06,1.36-17.03,4.08-23.91,2.72-6.88,6.88-12.27,12.48-16.18,5.6-3.91,12.73-5.87,21.38-5.87,12.6,0,22.09,4.18,28.48,12.54,6.38,8.36,9.58,19.5,9.58,33.42s-3.15,24.69-9.45,33.3Z"/>
  </g>
  <path class="cls-1" d="M138.52,554.41c17.11-30.08,77.03-33.1,111.31-13.84,21.01,11.81,26.16,27.19,21.7,39.02-.08.23-.18.45-.27.67-.23.56-.47,1.11-.75,1.65-5.38,10.67-18.89,17.78-35.34,15.39-21.75-3.15-37.18-13.83-50.79-24.1-23.96-18.09-39.25-8.2-39.41,6.39-.02,1.36.1,2.77.36,4.2.05.27.1.54.16.82,2.53,11.83,14.46,24.9,38.76,28.56,63.17,9.5,87.14-16.1,119.49-41.45,38.82-30.42,73,10.34,43.61,45.65-23.37,28.08-53.42,43.72-84.8,44.44-24.59.57-35.03-6.08-44.71-23.21-14.6-25.83-43.51-.75-1.82,19.18,14.82,7.09,31.32,9.31,47.83,9.31s32.6-3.13,47.83-9.31c15.76-6.39,29.91-15.79,42.04-27.92.76-.76,1.51-1.53,2.24-2.3,11.05-11.61,19.68-24.95,25.67-39.72,0,0,0-.02.01-.03,0-.01.01-.03.02-.04.36-.88.7-1.77,1.04-2.66.11-.3.22-.6.33-.9.22-.61.45-1.21.66-1.82.12-.35.24-.71.37-1.06.19-.56.38-1.12.57-1.69.12-.37.24-.74.36-1.12.17-.55.35-1.11.52-1.66.11-.37.23-.75.34-1.12.17-.57.33-1.14.49-1.7.1-.36.2-.72.3-1.08.17-.62.33-1.25.48-1.87.08-.31.16-.61.23-.92.23-.92.44-1.84.65-2.77,0-.02,0-.04.01-.06.2-.92.4-1.85.58-2.78.06-.31.12-.62.17-.93.12-.63.24-1.27.35-1.91.06-.37.12-.73.18-1.1.1-.58.19-1.17.28-1.76.06-.39.11-.77.16-1.16.08-.58.16-1.15.23-1.73.05-.39.1-.77.14-1.16.07-.59.13-1.18.19-1.77.04-.37.08-.74.11-1.11.06-.65.11-1.29.16-1.94.03-.32.05-.63.08-.95.07-.96.12-1.91.17-2.87.1-2.06.15-4.12.15-6.19,0-5.34-.33-10.63-.98-15.87-.25.49-.51.98-.78,1.45-17.1,30.08-77.03,33.1-111.31,13.84-20.77-11.68-26.03-26.84-21.84-38.63.18-.51.38-1.02.6-1.52.02-.04.03-.08.05-.12,4.99-11.26,18.85-18.93,35.85-16.47,21.75,3.15,37.18,13.83,50.79,24.1,23.96,18.09,39.25,8.2,39.41-6.39.15-12.87-11.47-29.39-39.28-33.58-63.17-9.51-87.14,16.1-119.48,41.45-31.24,24.48-59.47,2.87-54-24.9,0-.01,0-.02,0-.03.1-.53.22-1.06.35-1.6,0,0,0-.01,0-.02.12-.5.25-1,.4-1.5.04-.12.07-.24.1-.36.23-.78.49-1.57.78-2.36,1.78-4.93,4.65-9.96,8.74-14.88,23.37-28.08,53.42-43.72,84.8-44.44,24.59-.57,35.03,6.08,44.71,23.21,14.6,25.83,43.51.75,1.83-19.18-14.82-7.09-31.32-9.31-47.83-9.31s-32.6,3.13-47.83,9.31c-7.09,2.88-13.85,6.36-20.25,10.43-1.41.85-2.99,1.91-4.64,3.09-5.59,3.91-10.87,8.29-15.84,13.12-.46.44-.9.87-1.31,1.28-.79.79-1.57,1.59-2.34,2.4-.68.72-1.35,1.44-2.02,2.17-.24.26-.47.53-.71.8-.45.5-.9,1.01-1.34,1.52-.27.32-.54.64-.81.96-.4.47-.79.93-1.18,1.4-.28.34-.56.69-.83,1.03-.37.46-.74.91-1.09,1.37-.28.36-.56.72-.83,1.08-.35.45-.7.91-1.04,1.36-.28.37-.55.74-.82,1.12-.33.46-.66.91-.99,1.37-.27.38-.53.76-.8,1.15-.32.46-.63.92-.95,1.39-.26.39-.52.78-.77,1.17-.31.47-.61.94-.91,1.41-.25.39-.5.79-.75,1.18-.29.48-.59.95-.87,1.43-.24.4-.48.79-.71,1.19-.28.49-.57.98-.84,1.47-.23.4-.46.8-.68,1.2-.28.5-.55,1-.82,1.51-.21.4-.43.8-.64,1.2-.27.52-.54,1.04-.8,1.56-.2.39-.4.78-.6,1.18-.27.55-.53,1.1-.79,1.65-.18.37-.36.75-.53,1.12-.28.61-.55,1.23-.83,1.84-.15.32-.29.64-.43.97-.4.92-.79,1.84-1.16,2.76-.01.03-.02.05-.03.08,0,.01-.01.03-.02.04-.36.88-.7,1.77-1.04,2.65-.11.3-.22.6-.33.9-.22.61-.45,1.21-.66,1.82-.13.36-.25.71-.37,1.06-.19.56-.38,1.12-.57,1.68-.12.37-.24.75-.36,1.12-.17.55-.35,1.1-.51,1.66-.11.37-.23.75-.34,1.12-.17.57-.33,1.14-.48,1.7-.1.36-.2.72-.3,1.08-.17.62-.33,1.25-.48,1.87-.08.31-.16.61-.23.92-.23.92-.44,1.85-.65,2.79,0,0,0,.02,0,.03-.2.93-.4,1.87-.58,2.8-.06.31-.12.62-.17.93-.12.63-.24,1.27-.34,1.9-.07.37-.12.73-.18,1.1-.09.58-.19,1.17-.28,1.76-.06.38-.11.77-.17,1.16-.08.58-.16,1.15-.23,1.73-.05.39-.1.77-.14,1.16-.07.59-.13,1.18-.19,1.77-.04.37-.08.74-.11,1.11-.06.65-.11,1.29-.16,1.94-.02.32-.05.63-.07.95-.07.96-.13,1.91-.17,2.88-.1,2.06-.15,4.12-.15,6.19,0,5.34.33,10.63.98,15.86.25-.49.51-.98.78-1.45Z"/>
</svg>